<?xml version="1.0" standalone="no"?>
<!DOCTYPE svg PUBLIC "-//W3C//DTD SVG 20010904//EN"
 "http://www.w3.org/TR/2001/REC-SVG-20010904/DTD/svg10.dtd">
<svg version="1.0" xmlns="http://www.w3.org/2000/svg"
 width="299.000000pt" height="299.000000pt" viewBox="0 0 299.000000 299.000000"
 preserveAspectRatio="xMidYMid meet">

<g transform="translate(0.000000,299.000000) scale(0.100000,-0.100000)"
fill="#000000" stroke="none">
<path d="M1907 2419 c4 -13 8 -18 11 -10 2 7 -1 18 -6 23 -8 8 -9 4 -5 -13z"/>
<path d="M2297 1989 c4 -13 8 -18 11 -10 2 7 -1 18 -6 23 -8 8 -9 4 -5 -13z"/>
<path d="M1955 1870 c3 -5 8 -10 11 -10 2 0 4 5 4 10 0 6 -5 10 -11 10 -5 0
-7 -4 -4 -10z"/>
<path d="M2208 1874 c-3 -2 -31 -6 -64 -9 -32 -3 -84 -7 -114 -11 -100 -11
-428 -101 -376 -103 18 -1 18 -2 -3 -25 l-22 -23 23 -7 c13 -3 38 -6 55 -6 31
0 32 -1 25 -32 -14 -65 -7 -151 17 -198 35 -67 50 -82 67 -65 8 7 14 20 14 27
0 8 6 22 13 33 13 17 15 17 45 -5 54 -40 140 -11 168 56 13 30 17 33 39 24 21
-8 25 -7 25 10 0 11 7 20 15 20 18 0 20 -36 3 -43 -9 -4 -4 -14 15 -31 33 -31
49 -26 41 12 -4 21 -3 24 5 12 8 -11 11 0 11 45 0 66 -21 121 -63 171 -15 18
-27 34 -27 37 0 2 19 7 43 10 24 3 50 9 59 12 10 4 25 -2 37 -14 21 -21 21
-21 21 -1 0 11 6 20 13 20 6 0 3 7 -8 16 -11 8 -19 20 -17 25 1 5 -3 9 -9 9
-5 0 -8 4 -5 9 6 8 -39 33 -46 25z m-364 -180 c15 -40 -15 -84 -59 -84 -48 0
-58 84 -12 93 46 9 65 6 71 -9z m93 -76 c-3 -8 -6 -5 -6 6 -1 11 2 17 5 13 3
-3 4 -12 1 -19z m20 -60 c-3 -8 -6 -5 -6 6 -1 11 2 17 5 13 3 -3 4 -12 1 -19z
m-20 -10 c-3 -8 -6 -5 -6 6 -1 11 2 17 5 13 3 -3 4 -12 1 -19z m33 -15 c0 -5
-5 -15 -10 -23 -7 -12 -9 -10 -7 8 1 19 17 33 17 15z m-160 -123 c0 -5 -4 -10
-10 -10 -5 0 -10 5 -10 10 0 6 5 10 10 10 6 0 10 -4 10 -10z"/>
<path d="M915 1595 c-55 -13 -121 -31 -148 -39 -26 -8 -50 -15 -52 -15 -3 0
-20 -6 -38 -14 -17 -8 -57 -25 -87 -38 -30 -13 -56 -24 -57 -24 -2 -1 -5 -18
-7 -38 -3 -21 -8 -42 -11 -47 -3 -6 1 -10 9 -10 8 0 22 -10 31 -22 l16 -23 -6
25 c-6 26 -1 30 85 63 14 5 39 17 57 25 26 13 34 13 47 3 43 -36 -8 -106 -59
-83 -24 11 -25 10 -25 -26 0 -56 27 -136 56 -172 28 -32 73 -63 59 -39 -6 8
-4 11 7 6 12 -4 17 4 21 35 6 47 13 56 29 40 18 -18 83 -14 107 6 12 9 27 28
34 42 7 14 21 25 32 25 11 0 25 6 31 14 6 8 16 11 22 7 7 -4 12 -1 12 6 0 9 3
9 10 -2 7 -12 10 -8 10 15 0 49 -18 101 -56 156 -36 54 -36 54 9 80 18 10 18
11 0 24 -10 8 -13 15 -6 15 7 0 10 7 7 15 -8 19 -19 18 -139 -10z m-38 -232
c-3 -10 -5 -4 -5 12 0 17 2 24 5 18 2 -7 2 -21 0 -30z m43 -88 c0 -21 -3 -26
-9 -16 -5 7 -6 23 -4 35 3 15 2 17 -5 8 -7 -11 -10 -11 -15 3 -4 9 -3 13 3 10
6 -3 10 0 10 7 0 9 3 9 10 -2 5 -8 10 -28 10 -45z"/>
<path d="M2462 1130 c0 -14 2 -19 5 -12 2 6 2 18 0 25 -3 6 -5 1 -5 -13z"/>
<path d="M2930 805 c-37 -27 -130 -65 -160 -65 -14 0 -21 -10 -27 -42 l-9 -43
55 -41 c54 -39 114 -100 174 -174 l27 -34 0 212 c0 234 1 232 -60 187z"/>
<path d="M1583 706 c-10 -12 -6 -14 23 -13 36 1 45 11 18 21 -22 8 -27 7 -41
-8z"/>
<path d="M1445 657 c-20 -47 -19 -53 5 -53 11 0 20 3 20 6 0 6 46 27 81 35 14
3 44 0 67 -8 23 -8 42 -11 42 -6 0 5 -5 9 -11 9 -6 0 -9 6 -6 14 8 19 -9 24
-103 32 l-80 7 -15 -36z m97 10 c-15 -7 -26 -7 -33 0 -7 7 1 10 23 10 31 1 32
0 10 -10z m-52 -17 c0 -5 -5 -10 -11 -10 -5 0 -7 5 -4 10 3 6 8 10 11 10 2 0
4 -4 4 -10z"/>
<path d="M2020 310 c0 -5 5 -10 10 -10 6 0 10 5 10 10 0 6 -4 10 -10 10 -5 0
-10 -4 -10 -10z"/>
<path d="M334 283 c3 -3 -10 -24 -30 -46 -46 -50 -63 -93 -71 -173 l-6 -64
129 0 129 0 28 53 c15 28 45 76 67 105 38 50 40 54 26 81 -15 29 -46 59 -46
45 0 -4 10 -19 23 -32 l22 -25 -57 7 c-31 3 -78 16 -105 27 -44 20 -122 35
-109 22z m36 -159 c0 -39 -31 -64 -56 -43 -30 25 -1 92 36 82 15 -4 20 -14 20
-39z"/>
</g>
</svg>
